<svg xmlns="http://www.w3.org/2000/svg" version="1.1" xmlns:xlink="http://www.w3.org/1999/xlink" xmlns:svgjs="http://svgjs.dev/svgjs" width="1440" height="560" preserveAspectRatio="none" viewBox="0 0 1440 560"><g mask="url(&quot;#SvgjsMask1005&quot;)" fill="none"><rect width="1440" height="560" x="0" y="0" fill="#0e2a47"></rect><path d="M0,569.78C112.024,571.353,222.174,551.872,322.067,501.146C429.627,446.527,547.142,382.262,590.758,269.79C633.956,158.396,595.701,30.424,546.9,-78.632C505.324,-171.542,407.82,-218.764,338.702,-293.487C272.51,-365.047,231.59,-456.215,149.302,-508.475C47.997,-572.812,-65.013,-643.796,-183.567,-625.172C-304.893,-606.112,-401.741,-510.008,-473.838,-410.583C-542.433,-315.988,-577.003,-199.775,-576.772,-82.927C-576.559,24.719,-517.01,117.771,-472.6,215.829C-428.037,314.225,-402.764,427.432,-316.307,492.184C-227.617,558.608,-110.795,568.225,0,569.78" fill="#0b2239"></path><path d="M1440 965.7760000000001C1517.68 962.072 1589.373 935.287 1659.262 901.178 1737.358 863.0640000000001 1831.036 834.069 1869.516 756.153 1908.151 677.922 1884.925 582.781 1857.393 499.988 1832.828 426.119 1781.104 366.53200000000004 1722.797 314.95500000000004 1670.229 268.455 1605.46 244.704 1540.047 219.27100000000002 1468.433 191.42700000000002 1396.389 138.77999999999997 1322.33 159.252 1248.192 179.745 1214.057 262.526 1166.078 322.64599999999996 1120.175 380.16499999999996 1066.203 432.38800000000003 1047.546 503.574 1027.617 579.614 1030.24 660.897 1058.17 734.376 1087.181 810.7 1137.046 880.428 1206.876 922.7470000000001 1275.852 964.548 1359.438 969.617 1440 965.7760000000001" fill="#113255"></path></g><defs><mask id="SvgjsMask1005"><rect width="1440" height="560" fill="#ffffff"></rect></mask></defs></svg>